<svg width="18" height="18" viewBox="0 0 18 18" fill="none" xmlns="http://www.w3.org/2000/svg">
<path d="M15.4583 5.09166H13.8916C13.7333 2.525 11.6033 0.486664 8.99996 0.486664C6.39663 0.486664 4.26663 2.52666 4.10829 5.09166H2.54163C1.50829 5.09166 0.666626 5.93083 0.666626 6.96666V15.4917C0.666626 16.525 1.50829 17.3667 2.54163 17.3667H15.4583C16.4916 17.3667 17.3333 16.525 17.3333 15.4917V6.96666C17.3333 5.93166 16.4916 5.09166 15.4583 5.09166V5.09166ZM9.62496 12.0725V13.2358C9.62496 13.5808 9.34496 13.8608 8.99996 13.8608C8.65496 13.8608 8.37496 13.5808 8.37496 13.2358V12.0725C7.73829 11.8225 7.28579 11.2058 7.28579 10.4808C7.28579 9.53333 8.05246 8.76583 8.99996 8.76583C9.94663 8.76583 10.7141 9.5325 10.7141 10.4792C10.7141 11.2042 10.2616 11.8208 9.62496 12.0708V12.0725ZM5.37329 5.09166C5.53163 3.21666 7.08746 1.73666 8.99996 1.73666C10.9125 1.73666 12.4691 3.2175 12.6266 5.08916H5.37329V5.09166Z" fill="#D9D9D9"/>
</svg>
